<svg xmlns="http://www.w3.org/2000/svg" xmlns:xlink="http://www.w3.org/1999/xlink" width="800" zoomAndPan="magnify" viewBox="0 0 600 599.999999" height="800" preserveAspectRatio="xMidYMid meet" version="1.2"><g id="e75f3cf829"><rect x="0" width="600" y="0" height="599.999999" style="fill:#ffffff;fill-opacity:1;stroke:none;"/><rect x="0" width="600" y="0" height="599.999999" style="fill:#ffffff;fill-opacity:1;stroke:none;"/><path style=" stroke:none;fill-rule:nonzero;fill:#white;fill-opacity:1;" d="M 269.644531 105.902344 L 139.023438 105.902344 L 68.519531 458.386719 C 36.542969 413.617188 17.742188 358.808594 17.742188 299.609375 C 17.742188 148.570312 140.1875 26.125 291.226562 26.125 C 330.171875 26.125 367.226562 34.269531 400.773438 48.941406 L 362.84375 243.167969 L 242.179688 243.167969 Z M 269.644531 105.902344 "/><path style=" stroke:none;fill-rule:nonzero;fill:#333333;fill-opacity:1;" d="M 564.703125 299.609375 C 564.703125 450.660156 442.257812 573.105469 291.21875 573.105469 C 251.933594 573.105469 214.585938 564.832031 180.835938 549.921875 L 238.84375 259.875 L 266.996094 350.523438 L 341.375 350.523438 L 312.816406 493.335938 L 443.421875 493.335938 L 513.226562 139.886719 C 545.625 184.804688 564.703125 239.988281 564.703125 299.609375 Z M 564.703125 299.609375 "/></g></svg>