<svg width="772" height="772" viewBox="0 0 772 772" fill="none" xmlns="http://www.w3.org/2000/svg">
<path d="M355.59 112.97H171.49L72.1198 609.78C27.0498 546.68 0.549805 469.43 0.549805 385.99C0.549805 173.11 173.13 0.530273 386.01 0.530273C440.9 0.530273 493.13 12.0102 540.41 32.6902L486.95 306.44H316.88L355.59 112.97Z" fill="white"/>
<path d="M771.46 385.99C771.46 598.89 598.88 771.47 386 771.47C330.63 771.47 277.99 759.81 230.42 738.79L312.18 329.99L351.86 457.75H456.69L416.44 659.04H600.52L698.91 160.87C744.57 224.18 771.46 301.96 771.46 385.99Z" fill="#333333"/>
</svg>
